STARTFONT 2.1
FONT -FontForge-Small Fonts-Normal-R-Normal--3-20-120-120-P-18-WinRoman-0
SIZE 2 120 120
FONTBOUNDINGBOX 2 3 0 -1
COMMENT "Generated by fontforge, http://fontforge.sourceforge.net"
COMMENT "(c) Copyright Microsoft Corp. 1987. All rights reserved."
STARTPROPERTIES 31
FOUNDRY "FontForge"
FAMILY_NAME "Small Fonts"
WEIGHT_NAME "Normal"
SLANT "R"
SETWIDTH_NAME "Normal"
ADD_STYLE_NAME ""
PIXEL_SIZE 3
POINT_SIZE 20
RESOLUTION_X 120
RESOLUTION_Y 120
SPACING "P"
AVERAGE_WIDTH 18
CHARSET_REGISTRY "WinRoman"
CHARSET_ENCODING "0"
FONTNAME_REGISTRY ""
CHARSET_COLLECTIONS "WinRoman"
FONT_NAME "SmallFonts"
FACE_NAME "Small Fonts"
COPYRIGHT "(c) Copyright Microsoft Corp. 1987. All rights reserved."
FONT_VERSION "001.000"
FONT_ASCENT 2
FONT_DESCENT 1
UNDERLINE_POSITION 0
UNDERLINE_THICKNESS 1
CAP_HEIGHT 1
RAW_ASCENT 800
RAW_DESCENT 200
RELATIVE_WEIGHT 40
RELATIVE_SETWIDTH 50
AVG_LOWERCASE_WIDTH 18
AVG_UPPERCASE_WIDTH 19
ENDPROPERTIES
CHARS 135
STARTCHAR numbersign
ENCODING 35
SWIDTH 583 0
DWIDTH 1 0
BBX 1 1 0 -1
BITMAP
00
ENDCHAR
STARTCHAR dollar
ENCODING 36
SWIDTH 500 0
DWIDTH 2 0
BBX 1 2 1 0
BITMAP
80
80
ENDCHAR
STARTCHAR percent
ENCODING 37
SWIDTH 833 0
DWIDTH 2 0
BBX 1 2 1 0
BITMAP
80
80
ENDCHAR
STARTCHAR ampersand
ENCODING 38
SWIDTH 667 0
DWIDTH 2 0
BBX 1 2 1 0
BITMAP
80
80
ENDCHAR
STARTCHAR plus
ENCODING 43
SWIDTH 583 0
DWIDTH 1 0
BBX 1 1 0 -1
BITMAP
00
ENDCHAR
STARTCHAR zero
ENCODING 48
SWIDTH 500 0
DWIDTH 1 0
BBX 1 1 0 -1
BITMAP
00
ENDCHAR
STARTCHAR one
ENCODING 49
SWIDTH 500 0
DWIDTH 2 0
BBX 1 3 1 -1
BITMAP
80
80
80
ENDCHAR
STARTCHAR two
ENCODING 50
SWIDTH 500 0
DWIDTH 2 0
BBX 1 2 1 0
BITMAP
80
80
ENDCHAR
STARTCHAR three
ENCODING 51
SWIDTH 500 0
DWIDTH 2 0
BBX 1 2 1 0
BITMAP
80
80
ENDCHAR
STARTCHAR four
ENCODING 52
SWIDTH 500 0
DWIDTH 2 0
BBX 1 2 1 0
BITMAP
80
80
ENDCHAR
STARTCHAR five
ENCODING 53
SWIDTH 500 0
DWIDTH 2 0
BBX 1 2 1 0
BITMAP
80
80
ENDCHAR
STARTCHAR six
ENCODING 54
SWIDTH 500 0
DWIDTH 2 0
BBX 1 2 1 0
BITMAP
80
80
ENDCHAR
STARTCHAR seven
ENCODING 55
SWIDTH 500 0
DWIDTH 2 0
BBX 1 2 1 0
BITMAP
80
80
ENDCHAR
STARTCHAR eight
ENCODING 56
SWIDTH 500 0
DWIDTH 2 0
BBX 1 2 1 0
BITMAP
80
80
ENDCHAR
STARTCHAR nine
ENCODING 57
SWIDTH 500 0
DWIDTH 2 0
BBX 1 2 1 0
BITMAP
80
80
ENDCHAR
STARTCHAR less
ENCODING 60
SWIDTH 500 0
DWIDTH 1 0
BBX 1 1 0 -1
BITMAP
00
ENDCHAR
STARTCHAR equal
ENCODING 61
SWIDTH 583 0
DWIDTH 2 0
BBX 1 1 1 0
BITMAP
80
ENDCHAR
STARTCHAR greater
ENCODING 62
SWIDTH 500 0
DWIDTH 2 0
BBX 1 1 1 0
BITMAP
80
ENDCHAR
STARTCHAR question
ENCODING 63
SWIDTH 500 0
DWIDTH 2 0
BBX 1 2 1 0
BITMAP
80
80
ENDCHAR
STARTCHAR at
ENCODING 64
SWIDTH 917 0
DWIDTH 2 0
BBX 1 2 1 0
BITMAP
80
80
ENDCHAR
STARTCHAR A
ENCODING 65
SWIDTH 667 0
DWIDTH 2 0
BBX 1 2 1 0
BITMAP
80
80
ENDCHAR
STARTCHAR B
ENCODING 66
SWIDTH 667 0
DWIDTH 2 0
BBX 1 2 1 0
BITMAP
80
80
ENDCHAR
STARTCHAR C
ENCODING 67
SWIDTH 667 0
DWIDTH 2 0
BBX 1 2 1 0
BITMAP
80
80
ENDCHAR
STARTCHAR D
ENCODING 68
SWIDTH 667 0
DWIDTH 2 0
BBX 1 2 1 0
BITMAP
80
80
ENDCHAR
STARTCHAR E
ENCODING 69
SWIDTH 667 0
DWIDTH 2 0
BBX 1 2 1 0
BITMAP
80
80
ENDCHAR
STARTCHAR F
ENCODING 70
SWIDTH 583 0
DWIDTH 2 0
BBX 1 2 1 0
BITMAP
80
80
ENDCHAR
STARTCHAR G
ENCODING 71
SWIDTH 750 0
DWIDTH 2 0
BBX 1 2 1 0
BITMAP
80
80
ENDCHAR
STARTCHAR H
ENCODING 72
SWIDTH 667 0
DWIDTH 2 0
BBX 1 2 1 0
BITMAP
80
80
ENDCHAR
STARTCHAR K
ENCODING 75
SWIDTH 667 0
DWIDTH 2 0
BBX 1 2 1 0
BITMAP
80
80
ENDCHAR
STARTCHAR L
ENCODING 76
SWIDTH 583 0
DWIDTH 2 0
BBX 1 2 1 0
BITMAP
80
80
ENDCHAR
STARTCHAR M
ENCODING 77
SWIDTH 833 0
DWIDTH 2 0
BBX 1 2 1 0
BITMAP
80
80
ENDCHAR
STARTCHAR N
ENCODING 78
SWIDTH 667 0
DWIDTH 2 0
BBX 1 2 1 0
BITMAP
80
80
ENDCHAR
STARTCHAR O
ENCODING 79
SWIDTH 750 0
DWIDTH 2 0
BBX 1 2 1 0
BITMAP
80
80
ENDCHAR
STARTCHAR P
ENCODING 80
SWIDTH 667 0
DWIDTH 2 0
BBX 1 2 1 0
BITMAP
80
80
ENDCHAR
STARTCHAR Q
ENCODING 81
SWIDTH 750 0
DWIDTH 2 0
BBX 1 2 1 0
BITMAP
80
80
ENDCHAR
STARTCHAR R
ENCODING 82
SWIDTH 667 0
DWIDTH 2 0
BBX 1 2 1 0
BITMAP
80
80
ENDCHAR
STARTCHAR S
ENCODING 83
SWIDTH 667 0
DWIDTH 2 0
BBX 1 2 1 0
BITMAP
80
80
ENDCHAR
STARTCHAR T
ENCODING 84
SWIDTH 667 0
DWIDTH 2 0
BBX 1 2 1 0
BITMAP
80
80
ENDCHAR
STARTCHAR U
ENCODING 85
SWIDTH 667 0
DWIDTH 2 0
BBX 1 2 1 0
BITMAP
80
80
ENDCHAR
STARTCHAR V
ENCODING 86
SWIDTH 667 0
DWIDTH 2 0
BBX 1 2 1 0
BITMAP
80
80
ENDCHAR
STARTCHAR W
ENCODING 87
SWIDTH 1000 0
DWIDTH 2 0
BBX 1 2 1 0
BITMAP
80
80
ENDCHAR
STARTCHAR X
ENCODING 88
SWIDTH 667 0
DWIDTH 2 0
BBX 1 2 1 0
BITMAP
80
80
ENDCHAR
STARTCHAR Y
ENCODING 89
SWIDTH 667 0
DWIDTH 2 0
BBX 1 2 1 0
BITMAP
80
80
ENDCHAR
STARTCHAR Z
ENCODING 90
SWIDTH 583 0
DWIDTH 2 0
BBX 1 2 1 0
BITMAP
80
80
ENDCHAR
STARTCHAR asciicircum
ENCODING 94
SWIDTH 500 0
DWIDTH 2 0
BBX 1 1 1 1
BITMAP
80
ENDCHAR
STARTCHAR underscore
ENCODING 95
SWIDTH 500 0
DWIDTH 1 0
BBX 1 1 0 0
BITMAP
80
ENDCHAR
STARTCHAR a
ENCODING 97
SWIDTH 500 0
DWIDTH 2 0
BBX 1 1 1 0
BITMAP
80
ENDCHAR
STARTCHAR b
ENCODING 98
SWIDTH 583 0
DWIDTH 2 0
BBX 1 2 1 0
BITMAP
80
80
ENDCHAR
STARTCHAR c
ENCODING 99
SWIDTH 500 0
DWIDTH 2 0
BBX 1 1 1 0
BITMAP
80
ENDCHAR
STARTCHAR d
ENCODING 100
SWIDTH 583 0
DWIDTH 2 0
BBX 1 2 1 0
BITMAP
80
80
ENDCHAR
STARTCHAR e
ENCODING 101
SWIDTH 500 0
DWIDTH 2 0
BBX 1 1 1 0
BITMAP
80
ENDCHAR
STARTCHAR g
ENCODING 103
SWIDTH 583 0
DWIDTH 2 0
BBX 1 2 1 -1
BITMAP
80
80
ENDCHAR
STARTCHAR h
ENCODING 104
SWIDTH 583 0
DWIDTH 2 0
BBX 1 2 1 0
BITMAP
80
80
ENDCHAR
STARTCHAR k
ENCODING 107
SWIDTH 500 0
DWIDTH 2 0
BBX 1 2 1 0
BITMAP
80
80
ENDCHAR
STARTCHAR m
ENCODING 109
SWIDTH 833 0
DWIDTH 1 0
BBX 1 1 0 -1
BITMAP
00
ENDCHAR
STARTCHAR n
ENCODING 110
SWIDTH 583 0
DWIDTH 2 0
BBX 1 1 1 0
BITMAP
80
ENDCHAR
STARTCHAR o
ENCODING 111
SWIDTH 500 0
DWIDTH 2 0
BBX 1 1 1 0
BITMAP
80
ENDCHAR
STARTCHAR p
ENCODING 112
SWIDTH 583 0
DWIDTH 2 0
BBX 1 2 1 -1
BITMAP
80
80
ENDCHAR
STARTCHAR q
ENCODING 113
SWIDTH 583 0
DWIDTH 2 0
BBX 1 2 1 -1
BITMAP
80
80
ENDCHAR
STARTCHAR u
ENCODING 117
SWIDTH 583 0
DWIDTH 2 0
BBX 1 1 1 0
BITMAP
80
ENDCHAR
STARTCHAR v
ENCODING 118
SWIDTH 500 0
DWIDTH 2 0
BBX 1 1 1 0
BITMAP
80
ENDCHAR
STARTCHAR w
ENCODING 119
SWIDTH 667 0
DWIDTH 2 0
BBX 1 1 1 0
BITMAP
80
ENDCHAR
STARTCHAR asciitilde
ENCODING 126
SWIDTH 417 0
DWIDTH 2 0
BBX 1 1 1 1
BITMAP
80
ENDCHAR
STARTCHAR cent
ENCODING 162
SWIDTH 500 0
DWIDTH 1 0
BBX 1 1 0 -1
BITMAP
00
ENDCHAR
STARTCHAR sterling
ENCODING 163
SWIDTH 500 0
DWIDTH 2 0
BBX 1 2 1 0
BITMAP
80
80
ENDCHAR
STARTCHAR currency
ENCODING 164
SWIDTH 500 0
DWIDTH 2 0
BBX 1 2 1 0
BITMAP
80
80
ENDCHAR
STARTCHAR yen
ENCODING 165
SWIDTH 500 0
DWIDTH 2 0
BBX 1 2 1 0
BITMAP
80
80
ENDCHAR
STARTCHAR section
ENCODING 167
SWIDTH 500 0
DWIDTH 1 0
BBX 1 1 0 -1
BITMAP
00
ENDCHAR
STARTCHAR copyright
ENCODING 169
SWIDTH 750 0
DWIDTH 1 0
BBX 1 1 0 -1
BITMAP
00
ENDCHAR
STARTCHAR guillemotleft
ENCODING 171
SWIDTH 500 0
DWIDTH 1 0
BBX 1 1 0 -1
BITMAP
00
ENDCHAR
STARTCHAR logicalnot
ENCODING 172
SWIDTH 583 0
DWIDTH 2 0
BBX 1 1 1 0
BITMAP
80
ENDCHAR
STARTCHAR registered
ENCODING 174
SWIDTH 667 0
DWIDTH 1 0
BBX 1 1 0 -1
BITMAP
00
ENDCHAR
STARTCHAR macron
ENCODING 175
SWIDTH 500 0
DWIDTH 2 0
BBX 1 1 1 1
BITMAP
80
ENDCHAR
STARTCHAR plusminus
ENCODING 177
SWIDTH 583 0
DWIDTH 1 0
BBX 1 1 0 -1
BITMAP
00
ENDCHAR
STARTCHAR mu
ENCODING 181
SWIDTH 500 0
DWIDTH 1 0
BBX 1 1 0 -1
BITMAP
00
ENDCHAR
STARTCHAR paragraph
ENCODING 182
SWIDTH 500 0
DWIDTH 2 0
BBX 1 2 1 0
BITMAP
80
80
ENDCHAR
STARTCHAR guillemotright
ENCODING 187
SWIDTH 500 0
DWIDTH 1 0
BBX 1 1 0 -1
BITMAP
00
ENDCHAR
STARTCHAR onequarter
ENCODING 188
SWIDTH 833 0
DWIDTH 2 0
BBX 1 1 1 0
BITMAP
80
ENDCHAR
STARTCHAR onehalf
ENCODING 189
SWIDTH 833 0
DWIDTH 2 0
BBX 1 1 1 0
BITMAP
80
ENDCHAR
STARTCHAR threequarters
ENCODING 190
SWIDTH 833 0
DWIDTH 2 0
BBX 1 1 1 0
BITMAP
80
ENDCHAR
STARTCHAR questiondown
ENCODING 191
SWIDTH 500 0
DWIDTH 2 0
BBX 1 2 1 -1
BITMAP
80
80
ENDCHAR
STARTCHAR Agrave
ENCODING 192
SWIDTH 583 0
DWIDTH 2 0
BBX 1 2 1 0
BITMAP
80
80
ENDCHAR
STARTCHAR Aacute
ENCODING 193
SWIDTH 583 0
DWIDTH 2 0
BBX 1 2 1 0
BITMAP
80
80
ENDCHAR
STARTCHAR Acircumflex
ENCODING 194
SWIDTH 583 0
DWIDTH 2 0
BBX 1 2 1 0
BITMAP
80
80
ENDCHAR
STARTCHAR Atilde
ENCODING 195
SWIDTH 583 0
DWIDTH 2 0
BBX 1 2 1 0
BITMAP
80
80
ENDCHAR
STARTCHAR Adieresis
ENCODING 196
SWIDTH 583 0
DWIDTH 2 0
BBX 1 2 1 0
BITMAP
80
80
ENDCHAR
STARTCHAR Aring
ENCODING 197
SWIDTH 583 0
DWIDTH 2 0
BBX 1 2 1 0
BITMAP
80
80
ENDCHAR
STARTCHAR AE
ENCODING 198
SWIDTH 917 0
DWIDTH 2 0
BBX 1 2 1 0
BITMAP
80
80
ENDCHAR
STARTCHAR Ccedilla
ENCODING 199
SWIDTH 583 0
DWIDTH 2 0
BBX 1 2 1 0
BITMAP
80
80
ENDCHAR
STARTCHAR Egrave
ENCODING 200
SWIDTH 583 0
DWIDTH 2 0
BBX 1 2 1 0
BITMAP
80
80
ENDCHAR
STARTCHAR Eacute
ENCODING 201
SWIDTH 583 0
DWIDTH 2 0
BBX 1 2 1 0
BITMAP
80
80
ENDCHAR
STARTCHAR Ecircumflex
ENCODING 202
SWIDTH 583 0
DWIDTH 2 0
BBX 1 2 1 0
BITMAP
80
80
ENDCHAR
STARTCHAR Edieresis
ENCODING 203
SWIDTH 583 0
DWIDTH 2 0
BBX 1 2 1 0
BITMAP
80
80
ENDCHAR
STARTCHAR Eth
ENCODING 208
SWIDTH 667 0
DWIDTH 1 0
BBX 1 1 0 -1
BITMAP
00
ENDCHAR
STARTCHAR Ntilde
ENCODING 209
SWIDTH 667 0
DWIDTH 2 0
BBX 1 2 1 0
BITMAP
80
80
ENDCHAR
STARTCHAR Ograve
ENCODING 210
SWIDTH 667 0
DWIDTH 2 0
BBX 1 2 1 0
BITMAP
80
80
ENDCHAR
STARTCHAR Oacute
ENCODING 211
SWIDTH 667 0
DWIDTH 2 0
BBX 1 2 1 0
BITMAP
80
80
ENDCHAR
STARTCHAR Ocircumflex
ENCODING 212
SWIDTH 667 0
DWIDTH 2 0
BBX 1 2 1 0
BITMAP
80
80
ENDCHAR
STARTCHAR Otilde
ENCODING 213
SWIDTH 667 0
DWIDTH 2 0
BBX 1 2 1 0
BITMAP
80
80
ENDCHAR
STARTCHAR Odieresis
ENCODING 214
SWIDTH 667 0
DWIDTH 2 0
BBX 1 2 1 0
BITMAP
80
80
ENDCHAR
STARTCHAR multiply
ENCODING 215
SWIDTH 500 0
DWIDTH 2 0
BBX 1 1 1 0
BITMAP
80
ENDCHAR
STARTCHAR Oslash
ENCODING 216
SWIDTH 667 0
DWIDTH 2 0
BBX 1 2 1 0
BITMAP
80
80
ENDCHAR
STARTCHAR Ugrave
ENCODING 217
SWIDTH 667 0
DWIDTH 2 0
BBX 1 2 1 0
BITMAP
80
80
ENDCHAR
STARTCHAR Uacute
ENCODING 218
SWIDTH 667 0
DWIDTH 2 0
BBX 1 2 1 0
BITMAP
80
80
ENDCHAR
STARTCHAR Ucircumflex
ENCODING 219
SWIDTH 667 0
DWIDTH 2 0
BBX 1 2 1 0
BITMAP
80
80
ENDCHAR
STARTCHAR Udieresis
ENCODING 220
SWIDTH 667 0
DWIDTH 2 0
BBX 1 2 1 0
BITMAP
80
80
ENDCHAR
STARTCHAR Yacute
ENCODING 221
SWIDTH 583 0
DWIDTH 2 0
BBX 1 2 1 0
BITMAP
80
80
ENDCHAR
STARTCHAR Thorn
ENCODING 222
SWIDTH 667 0
DWIDTH 2 0
BBX 1 2 1 0
BITMAP
80
80
ENDCHAR
STARTCHAR germandbls
ENCODING 223
SWIDTH 583 0
DWIDTH 2 0
BBX 1 2 1 0
BITMAP
80
80
ENDCHAR
STARTCHAR agrave
ENCODING 224
SWIDTH 500 0
DWIDTH 2 0
BBX 1 1 1 0
BITMAP
80
ENDCHAR
STARTCHAR aacute
ENCODING 225
SWIDTH 500 0
DWIDTH 2 0
BBX 1 1 1 0
BITMAP
80
ENDCHAR
STARTCHAR acircumflex
ENCODING 226
SWIDTH 500 0
DWIDTH 2 0
BBX 1 1 1 0
BITMAP
80
ENDCHAR
STARTCHAR atilde
ENCODING 227
SWIDTH 500 0
DWIDTH 2 0
BBX 1 1 1 0
BITMAP
80
ENDCHAR
STARTCHAR adieresis
ENCODING 228
SWIDTH 500 0
DWIDTH 2 0
BBX 1 1 1 0
BITMAP
80
ENDCHAR
STARTCHAR aring
ENCODING 229
SWIDTH 500 0
DWIDTH 2 0
BBX 1 1 1 0
BITMAP
80
ENDCHAR
STARTCHAR ae
ENCODING 230
SWIDTH 833 0
DWIDTH 2 0
BBX 1 1 1 0
BITMAP
80
ENDCHAR
STARTCHAR ccedilla
ENCODING 231
SWIDTH 500 0
DWIDTH 2 0
BBX 1 1 1 0
BITMAP
80
ENDCHAR
STARTCHAR egrave
ENCODING 232
SWIDTH 500 0
DWIDTH 2 0
BBX 1 1 1 0
BITMAP
80
ENDCHAR
STARTCHAR eacute
ENCODING 233
SWIDTH 500 0
DWIDTH 2 0
BBX 1 1 1 0
BITMAP
80
ENDCHAR
STARTCHAR ecircumflex
ENCODING 234
SWIDTH 500 0
DWIDTH 2 0
BBX 1 1 1 0
BITMAP
80
ENDCHAR
STARTCHAR edieresis
ENCODING 235
SWIDTH 500 0
DWIDTH 2 0
BBX 1 1 1 0
BITMAP
80
ENDCHAR
STARTCHAR eth
ENCODING 240
SWIDTH 500 0
DWIDTH 1 0
BBX 1 1 0 -1
BITMAP
00
ENDCHAR
STARTCHAR ntilde
ENCODING 241
SWIDTH 500 0
DWIDTH 2 0
BBX 1 1 1 0
BITMAP
80
ENDCHAR
STARTCHAR ograve
ENCODING 242
SWIDTH 500 0
DWIDTH 2 0
BBX 1 1 1 0
BITMAP
80
ENDCHAR
STARTCHAR oacute
ENCODING 243
SWIDTH 500 0
DWIDTH 2 0
BBX 1 1 1 0
BITMAP
80
ENDCHAR
STARTCHAR ocircumflex
ENCODING 244
SWIDTH 500 0
DWIDTH 2 0
BBX 1 1 1 0
BITMAP
80
ENDCHAR
STARTCHAR otilde
ENCODING 245
SWIDTH 500 0
DWIDTH 2 0
BBX 1 1 1 0
BITMAP
80
ENDCHAR
STARTCHAR odieresis
ENCODING 246
SWIDTH 500 0
DWIDTH 2 0
BBX 1 1 1 0
BITMAP
80
ENDCHAR
STARTCHAR divide
ENCODING 247
SWIDTH 500 0
DWIDTH 2 0
BBX 1 1 1 0
BITMAP
80
ENDCHAR
STARTCHAR oslash
ENCODING 248
SWIDTH 500 0
DWIDTH 2 0
BBX 1 1 1 0
BITMAP
80
ENDCHAR
STARTCHAR ugrave
ENCODING 249
SWIDTH 500 0
DWIDTH 1 0
BBX 1 1 0 0
BITMAP
80
ENDCHAR
STARTCHAR uacute
ENCODING 250
SWIDTH 500 0
DWIDTH 1 0
BBX 1 1 0 0
BITMAP
80
ENDCHAR
STARTCHAR ucircumflex
ENCODING 251
SWIDTH 500 0
DWIDTH 1 0
BBX 1 1 0 0
BITMAP
80
ENDCHAR
STARTCHAR udieresis
ENCODING 252
SWIDTH 500 0
DWIDTH 1 0
BBX 1 1 0 0
BITMAP
80
ENDCHAR
STARTCHAR thorn
ENCODING 254
SWIDTH 583 0
DWIDTH 1 0
BBX 1 1 0 -1
BITMAP
00
ENDCHAR
ENDFONT
